<?xml version="1.0" encoding="UTF-8"?>
<svg width="394px" height="301px" viewBox="0 0 394 301" version="1.1" xmlns="http://www.w3.org/2000/svg" xmlns:xlink="http://www.w3.org/1999/xlink">
    <title>6194d74ecd483b3b0b6ab6cd_Lovie Awards Icon</title>
    <g id="Page-1" stroke="none" stroke-width="1" fill="none" fill-rule="evenodd">
        <g id="6194d74ecd483b3b0b6ab6cd_Lovie-Awards-Icon" transform="translate(0.973600, 0.000000)" fill="#FFC700" fill-rule="nonzero">
            <polygon id="Path" points="61.1378 25.25 86.4068 25.25 86.4068 0 61.1378 0"></polygon>
            <polygon id="Path" points="305.6562 25.25 330.9146 25.25 330.9146 0 305.6562 0"></polygon>
            <polygon id="Path" points="275.0982 25.25 300.3574 25.25 300.3574 0 275.0982 0"></polygon>
            <polygon id="Path" points="244.5278 25.25 269.7978 25.25 269.7978 0 244.5278 0"></polygon>
            <polygon id="Path" points="122.254 25.25 147.5224 25.25 147.5224 0 122.254 0"></polygon>
            <polygon id="Path" points="91.706 25.25 116.9766 25.25 116.9766 0 91.706 0"></polygon>
            <polygon id="Path" points="91.706 55.794 116.9766 55.794 116.9766 30.544 91.706 30.544"></polygon>
            <polygon id="Path" points="91.706 86.336 116.9766 86.336 116.9766 61.0878 91.706 61.0878"></polygon>
            <polygon id="Path" points="91.706 116.8808 116.9766 116.8808 116.9766 91.6298 91.706 91.6298"></polygon>
            <polygon id="Path" points="91.706 147.4248 116.9766 147.4248 116.9766 122.1738 91.706 122.1738"></polygon>
            <polygon id="Path" points="91.706 177.9472 116.9766 177.9472 116.9766 152.6992 91.706 152.6992"></polygon>
            <polygon id="Path" points="91.706 208.4902 116.9766 208.4902 116.9766 183.2442 91.706 183.2442"></polygon>
            <polygon id="Path" points="122.254 55.794 147.5224 55.794 147.5224 30.544 122.254 30.544"></polygon>
            <polygon id="Path" points="122.254 86.336 147.5224 86.336 147.5224 61.0878 122.254 61.0878"></polygon>
            <polygon id="Path" points="122.254 116.8808 147.5224 116.8808 147.5224 91.6298 122.254 91.6298"></polygon>
            <polygon id="Path" points="122.254 147.4248 147.5224 147.4248 147.5224 122.1738 122.254 122.1738"></polygon>
            <polygon id="Path" points="122.254 177.9472 147.5224 177.9472 147.5224 152.6992 122.254 152.6992"></polygon>
            <polygon id="Path" points="122.254 208.4902 147.5224 208.4902 147.5224 183.2442 122.254 183.2442"></polygon>
            <polygon id="Path" points="122.254 239.0352 147.5224 239.0352 147.5224 213.7862 122.254 213.7862"></polygon>
            <polygon id="Path" points="152.8336 55.794 178.103 55.794 178.103 30.544 152.8336 30.544"></polygon>
            <polygon id="Path" points="152.8336 86.336 178.103 86.336 178.103 61.0878 152.8336 61.0878"></polygon>
            <polygon id="Path" points="152.8336 116.8808 178.103 116.8808 178.103 91.6298 152.8336 91.6298"></polygon>
            <polygon id="Path" points="152.8336 147.4248 178.103 147.4248 178.103 122.1738 152.8336 122.1738"></polygon>
            <polygon id="Path" points="152.8336 177.9472 178.103 177.9472 178.103 152.6992 152.8336 152.6992"></polygon>
            <polygon id="Path" points="152.8336 208.4902 178.103 208.4902 178.103 183.2442 152.8336 183.2442"></polygon>
            <polygon id="Path" points="152.8336 239.0352 178.103 239.0352 178.103 213.7862 152.8336 213.7862"></polygon>
            <polygon id="Path" points="152.8336 269.5782 178.103 269.5782 178.103 244.33 152.8336 244.33"></polygon>
            <polygon id="Path" points="183.3906 86.336 208.6616 86.336 208.6616 61.0878 183.3906 61.0878"></polygon>
            <polygon id="Path" points="183.3906 116.8808 208.6616 116.8808 208.6616 91.6298 183.3906 91.6298"></polygon>
            <polygon id="Path" points="183.3906 147.4248 208.6616 147.4248 208.6616 122.1738 183.3906 122.1738"></polygon>
            <polygon id="Path" points="183.3906 177.9472 208.6616 177.9472 208.6616 152.6992 183.3906 152.6992"></polygon>
            <polygon id="Path" points="183.3906 208.4902 208.6616 208.4902 208.6616 183.2442 183.3906 183.2442"></polygon>
            <polygon id="Path" points="183.3906 239.0352 208.6616 239.0352 208.6616 213.7862 183.3906 213.7862"></polygon>
            <polygon id="Path" points="183.3906 269.5782 208.6616 269.5782 208.6616 244.33 183.3906 244.33"></polygon>
            <polygon id="Path" points="183.3906 300.121 208.6616 300.121 208.6616 274.872 183.3906 274.872"></polygon>
            <polygon id="Path" points="213.96 55.794 239.2296 55.794 239.2296 30.544 213.96 30.544"></polygon>
            <polygon id="Path" points="213.96 86.336 239.2296 86.336 239.2296 61.0878 213.96 61.0878"></polygon>
            <polygon id="Path" points="213.96 116.8808 239.2296 116.8808 239.2296 91.6298 213.96 91.6298"></polygon>
            <polygon id="Path" points="213.96 147.4248 239.2296 147.4248 239.2296 122.1738 213.96 122.1738"></polygon>
            <polygon id="Path" points="213.96 177.9472 239.2296 177.9472 239.2296 152.6992 213.96 152.6992"></polygon>
            <polygon id="Path" points="213.96 208.4902 239.2296 208.4902 239.2296 183.2442 213.96 183.2442"></polygon>
            <polygon id="Path" points="213.96 239.0352 239.2296 239.0352 239.2296 213.7862 213.96 213.7862"></polygon>
            <polygon id="Path" points="213.96 269.5782 239.2296 269.5782 239.2296 244.33 213.96 244.33"></polygon>
            <polygon id="Path" points="244.5278 55.794 269.7978 55.794 269.7978 30.544 244.5278 30.544"></polygon>
            <polygon id="Path" points="244.5278 86.336 269.7978 86.336 269.7978 61.0878 244.5278 61.0878"></polygon>
            <polygon id="Path" points="244.5278 116.8808 269.7978 116.8808 269.7978 91.6298 244.5278 91.6298"></polygon>
            <polygon id="Path" points="244.5278 147.4248 269.7978 147.4248 269.7978 122.1738 244.5278 122.1738"></polygon>
            <polygon id="Path" points="244.5278 177.9472 269.7978 177.9472 269.7978 152.6992 244.5278 152.6992"></polygon>
            <polygon id="Path" points="244.5278 208.4902 269.7978 208.4902 269.7978 183.2442 244.5278 183.2442"></polygon>
            <polygon id="Path" points="244.5278 239.0352 269.7978 239.0352 269.7978 213.7862 244.5278 213.7862"></polygon>
            <polygon id="Path" points="275.0982 55.794 300.3574 55.794 300.3574 30.544 275.0982 30.544"></polygon>
            <polygon id="Path" points="275.0982 86.336 300.3574 86.336 300.3574 61.0878 275.0982 61.0878"></polygon>
            <polygon id="Path" points="275.0982 116.8808 300.3574 116.8808 300.3574 91.6298 275.0982 91.6298"></polygon>
            <polygon id="Path" points="275.0982 147.4248 300.3574 147.4248 300.3574 122.1738 275.0982 122.1738"></polygon>
            <polygon id="Path" points="275.0982 177.9472 300.3574 177.9472 300.3574 152.6992 275.0982 152.6992"></polygon>
            <polygon id="Path" points="275.0982 208.4902 300.3574 208.4902 300.3574 183.2442 275.0982 183.2442"></polygon>
            <polygon id="Path" points="366.7828 86.336 392.0528 86.336 392.0528 61.0878 366.7828 61.0878"></polygon>
            <polygon id="Path" points="366.7828 116.8808 392.0528 116.8808 392.0528 91.6298 366.7828 91.6298"></polygon>
            <polygon id="Path" points="366.7828 147.4248 392.0528 147.4248 392.0528 122.1738 366.7828 122.1738"></polygon>
            <polygon id="Path" points="305.6562 55.794 330.9146 55.794 330.9146 30.544 305.6562 30.544"></polygon>
            <polygon id="Path" points="305.6562 86.336 330.9146 86.336 330.9146 61.0878 305.6562 61.0878"></polygon>
            <polygon id="Path" points="305.6562 116.8808 330.9146 116.8808 330.9146 91.6298 305.6562 91.6298"></polygon>
            <polygon id="Path" points="305.6562 147.4248 330.9146 147.4248 330.9146 122.1738 305.6562 122.1738"></polygon>
            <polygon id="Path" points="305.6562 177.9472 330.9146 177.9472 330.9146 152.6992 305.6562 152.6992"></polygon>
            <polygon id="Path" points="305.6562 208.4902 330.9146 208.4902 330.9146 183.2442 305.6562 183.2442"></polygon>
            <polygon id="Path" points="336.2246 55.794 361.4824 55.794 361.4824 30.544 336.2246 30.544"></polygon>
            <polygon id="Path" points="336.2246 86.336 361.4824 86.336 361.4824 61.0878 336.2246 61.0878"></polygon>
            <polygon id="Path" points="336.2246 116.8808 361.4824 116.8808 361.4824 91.6298 336.2246 91.6298"></polygon>
            <polygon id="Path" points="336.2246 147.4248 361.4824 147.4248 361.4824 122.1738 336.2246 122.1738"></polygon>
            <polygon id="Path" points="336.2246 177.9472 361.4824 177.9472 361.4824 152.6992 336.2246 152.6992"></polygon>
            <polygon id="Path" points="30.5694 55.794 55.8398 55.794 55.8398 30.544 30.5694 30.544"></polygon>
            <polygon id="Path" points="30.5694 86.336 55.8398 86.336 55.8398 61.0878 30.5694 61.0878"></polygon>
            <polygon id="Path" points="30.5694 116.8808 55.8398 116.8808 55.8398 91.6298 30.5694 91.6298"></polygon>
            <polygon id="Path" points="30.5694 147.4248 55.8398 147.4248 55.8398 122.1738 30.5694 122.1738"></polygon>
            <polygon id="Path" points="30.5694 177.9472 55.8398 177.9472 55.8398 152.6992 30.5694 152.6992"></polygon>
            <polygon id="Path" points="61.1378 86.336 86.4068 86.336 86.4068 61.0878 61.1378 61.0878"></polygon>
            <polygon id="Path" points="61.1378 116.8808 86.4068 116.8808 86.4068 91.6298 61.1378 91.6298"></polygon>
            <polygon id="Path" points="61.1378 147.4248 86.4068 147.4248 86.4068 122.1738 61.1378 122.1738"></polygon>
            <polygon id="Path" points="61.1378 177.9472 86.4068 177.9472 86.4068 152.6992 61.1378 152.6992"></polygon>
            <polygon id="Path" points="61.1378 208.4902 86.4068 208.4902 86.4068 183.2442 61.1378 183.2442"></polygon>
            <polygon id="Path" points="0 86.336 25.271 86.336 25.271 61.0878 0 61.0878"></polygon>
            <polygon id="Path" points="0 116.8808 25.271 116.8808 25.271 91.6298 0 91.6298"></polygon>
            <polygon id="Path" points="0 147.4248 25.271 147.4248 25.271 122.1738 0 122.1738"></polygon>
        </g>
    </g>
</svg>