<svg xmlns="http://www.w3.org/2000/svg" viewBox="0 0 545 1129.07"><defs><style>.cls-1{fill:none;stroke:#1e1e1e;stroke-miterlimit:10;stroke-width:4px;}</style></defs><g id="Lag_2" data-name="Lag 2"><g id="Lag_1-2" data-name="Lag 1"><path class="cls-1" d="M402.53,761.47c-15.38-3-26.47-4.68-28.89-5,8.47-1.18,160.5-23.24,160.5-82.15,0-54.21-175.71-67.95-175.71-67.95s173.34-28.74,173.34-78.83c0-39.73-184.57-69.21-184.57-69.21s180.2-25,180.2-79.33c0-46.22-167.1-70.83-167.1-70.83s162.24-17,162.24-75.95c0-45.35-171-74.33-171-74.33S521,137,521,85.14c0-67.46-224-83.07-224-83.07L262.15,45.42s153.27,14,153.27,38.1S41.3,131.86,38.68,132.11c-5.86,3.25-14.59,42.48-4.37,50,7.24,5.25,376.12,18.74,376.12,49.85C410.43,262.78,72,284,34.31,286.27c-18,10.12-23.44,36-4.36,50S413.42,351.86,413.42,382s-361.77,51-376.36,51.85c-18.09,10.11-23.45,36-4.37,50,7.24,5.49,377.74,17.48,377.74,48.47S59.26,587.84,40.3,589c-18,10.12-23.45,36-4.37,50,7.24,5.37,374.5,5.87,374.5,36.85S70.35,734,42.29,735.75c-16.91,9.41-22.75,42.54-7.43,58.15C13.91,805.27,2,818.3,2,832.15v223.6H3.62c14.59,40,129.64,71.32,269.25,71.32s254.55-31.28,269.26-71.32L543,1054V830.52C543,800.17,486.33,774.58,402.53,761.47Z"/></g></g></svg>