<svg xmlns="http://www.w3.org/2000/svg" viewBox="0 0 257.21 221.04"><defs><style>.cls-1{fill:#0a0a0a;}</style></defs><g id="Lag_2" data-name="Lag 2"><g id="Lag_1-2" data-name="Lag 1"><g id="Page-1"><g id="Communication_Arts_logo" data-name="Communication Arts logo"><g id="Group"><path id="Path" class="cls-1" d="M93.1,126.42l18.91-.18.09,12.1c0,54.85-14.15,84.55-53.14,82.42C18.91,218.57-.52,186.64,0,109.85.24,74.62,3.39,47.3,14.92,27.29,26.12,7.85,43.75,0,64.33,0,79.6,0,91,6,100.38,16.37c9.36,10.81,14.75,26.47,9.25,43.12-3.56,10.81-5,15.25-11.69,21.14-3.47,3-9.73,4.32-13.23,4-4.88-.41-18.56-4.92-19.51-22-.4-7.18.24-10.44,3.61-15.94,3.57-5.85,9.5-6.92,14.49-6.92,1.12,0,7,.46,10.58,5.23A17.41,17.41,0,0,1,97,49.74c.41.8.94,2.44,1.94,2.66-.22,0,.72.84.84-3.29a26.1,26.1,0,0,0-.84-6.21C95.13,26.74,83.49,19.13,70,19.57c-10.29.34-22.47,7.4-26.83,18.6-4.06,11.61-6.33,36.19-6.33,65,0,32.82-.12,58.33,3.32,70.35,3.13,12,9.1,26.37,25.83,26.66,15.87.26,26.88-12.12,27-61.95Z"/><path id="Shape" class="cls-1" d="M142.32,22.94c-10.41,4-15.24,16.13-15.84,17.58a23.91,23.91,0,0,0-1.19,6c0,3.11,1.23,4.34,1.11,4.61,2.45-5.34,6.49-10.89,13.91-12.11,5.67-1,8.85-.15,12.32,2.5a17.37,17.37,0,0,1,4.58,4.73c2.1,3.49,2.93,5.94,2.93,11.42,0,7.61-1.28,12.67-6,18.28-5,5.6-9.46,7.78-16,7.62-7.53-.19-11.48-2.71-17.38-8.66S112.35,61,111.94,51.3c-.7-16.53,5.32-28.9,16.94-39C140.73,1.94,154.79.36,172.21.27,192.53.16,206.08,6,217.06,21.47c3.3,4.67,4.95,9.24,7,15.27,1.69,5,2.11,12.92,2.11,25.73l-.34,108.41c0,11.61-2.43,28.39,7.78,28.45,3.43,0,10,0,9.76-16.51l-.17-34.14,13.72.25.21,20.94c.71,31.07-2.92,50.66-34.32,51-15.74.2-28.56-6.94-33.24-27.35C178.65,214,165.92,221,149.7,221c-12.47,0-27.2-6.55-35.31-16.57S106.61,180.21,107,165c.55-25.42,12.58-40.78,32.28-53.19L162.39,97c17.46-10,27.48-26,27.48-42.4,0-9.61-2.58-17.64-7.58-23.65s-18-15.63-38.89-8.39m45.39,74.68c-13.71,14.87-29.34,29.63-35,36.19-5.84,6.74-12.17,19-13.33,26.95-4.53,31.06,8.6,39,18,39,25.42,0,31.41-34,31-64.72Z"/></g></g></g></g></g></svg>